<svg width="12px" height="12px" viewBox="0 0 22 22" xmlns="http://www.w3.org/2000/svg">
<path d="M11.0002 5.48976C7.96186 5.48976 5.49004 7.96208 5.49004 11.0005C5.49004 14.0389 7.96186 16.5112 11.0002 16.5112C14.0381 16.5112 16.5104 14.0394 16.5104 11.0005C16.5104 7.96159 14.0381 5.48976 11.0002 5.48976Z" />
<path d="M10.9999 3.86997C10.4061 3.86997 9.92476 3.38866 9.92476 2.79531V1.07515C9.92476 0.481311 10.4061 0 10.9999 0C11.5938 0 12.0751 0.481311 12.0751 1.07515V2.79531C12.0751 3.38866 11.5933 3.86997 10.9999 3.86997Z" />
<path d="M10.9999 18.1295C10.4061 18.1295 9.92476 18.6109 9.92476 19.2047V20.9244C9.92476 21.5187 10.4061 22 10.9999 22C11.5938 22 12.0751 21.5187 12.0751 20.9244V19.2047C12.0751 18.6109 11.5933 18.1295 10.9999 18.1295Z" />
<path d="M16.041 5.95841C15.6216 5.53848 15.6216 4.85792 16.041 4.43799L17.2575 3.22156C17.6769 2.80212 18.3579 2.80212 18.7779 3.22156C19.1978 3.64149 19.1978 4.32254 18.7779 4.74198L17.5614 5.95841C17.142 6.37834 16.4615 6.37834 16.041 5.95841Z" />
<path d="M5.95844 16.0421C5.53851 15.6217 4.85796 15.6217 4.43803 16.0421L3.2216 17.258C2.80216 17.6775 2.80168 18.359 3.2216 18.7784C3.64153 19.1979 4.32257 19.1979 4.74201 18.7784L5.95844 17.5615C6.37836 17.1421 6.37836 16.461 5.95844 16.0421Z" />
<path d="M18.1296 11C18.1296 10.4062 18.6109 9.92485 19.2047 9.92485H20.9248C21.5187 9.92485 22 10.4062 22 11C22 11.5939 21.5187 12.0747 20.9248 12.0747H19.2047C18.6109 12.0747 18.1296 11.5939 18.1296 11Z" />
<path d="M3.86995 11C3.86995 10.4062 3.38865 9.92485 2.7948 9.92485H1.07515C0.481309 9.92485 0 10.4062 0 11C0 11.5939 0.481309 12.0747 1.07515 12.0747H2.79529C3.38865 12.0747 3.86995 11.5939 3.86995 11Z" />
<path d="M16.0412 16.0421C16.4611 15.6226 17.1422 15.6226 17.5616 16.0421L18.778 17.2585C19.1979 17.6775 19.1979 18.359 18.778 18.7784C18.3581 19.1979 17.6775 19.1979 17.2576 18.7784L16.0412 17.562C15.6213 17.1421 15.6213 16.4615 16.0412 16.0421Z" />
<path d="M5.95819 5.95841C6.37811 5.53849 6.37811 4.85793 5.95819 4.438L4.74176 3.22206C4.32184 2.80213 3.64128 2.80213 3.22135 3.22206C2.80143 3.6415 2.80143 4.32254 3.22135 4.74198L4.43778 5.95841C4.8577 6.37883 5.53826 6.37883 5.95819 5.95841Z" />
</svg>
